<svg width="26" height="25" viewBox="0 0 26 25" fill="none" xmlns="http://www.w3.org/2000/svg">
<ellipse cx="12.6138" cy="12.003" rx="11.9132" ry="12.003" fill="white"/>
<path d="M13.7309 0C7.35731 0 2.19498 5.20127 2.19498 11.6229C2.19498 16.7661 5.49714 21.1102 10.0827 22.6502C10.6595 22.7519 10.8758 22.4032 10.8758 22.0981C10.8758 21.8221 10.8614 20.9068 10.8614 19.9333C7.96295 20.4709 7.21311 19.2214 6.98239 18.5677C6.85261 18.2335 6.29023 17.202 5.79996 16.9259C5.3962 16.708 4.8194 16.1704 5.78554 16.1559C6.69399 16.1414 7.34289 16.9986 7.55919 17.3472C8.59742 19.1052 10.2557 18.6112 10.919 18.3061C11.02 17.5506 11.3228 17.0421 11.6544 16.7516C9.0877 16.461 6.40559 15.4585 6.40559 11.0127C6.40559 9.74874 6.85261 8.70268 7.58803 7.88907C7.47267 7.5985 7.06891 6.40715 7.70339 4.80899C7.70339 4.80899 8.66952 4.50389 10.8758 6.00034C11.7986 5.73883 12.7792 5.60807 13.7598 5.60807C14.7403 5.60807 15.7209 5.73883 16.6437 6.00034C18.85 4.48936 19.8161 4.80899 19.8161 4.80899C20.4506 6.40715 20.0468 7.5985 19.9315 7.88907C20.6669 8.70268 21.1139 9.73421 21.1139 11.0127C21.1139 15.473 18.4174 16.461 15.8506 16.7516C16.2688 17.1148 16.6293 17.8122 16.6293 18.9018C16.6293 20.4564 16.6149 21.7058 16.6149 22.0981C16.6149 22.4032 16.8312 22.7664 17.408 22.6502C19.6982 21.8715 21.6883 20.3886 23.0981 18.4104C24.5079 16.4322 25.2665 14.0583 25.2669 11.6229C25.2669 5.20127 20.1045 0 13.7309 0Z" fill="black"/>
</svg>
