<svg width="26" height="25" viewBox="0 0 26 25" fill="none" xmlns="http://www.w3.org/2000/svg">
<ellipse cx="12.615" cy="12.5086" rx="11.9132" ry="12.003" fill="white"/>
<ellipse cx="13.7317" cy="11.8417" rx="11.5357" ry="11.3362" fill="#131313"/>
<g clip-path="url(#clip0_4_31)">
<path d="M13.5466 3.11224C11.136 3.11224 10.8328 3.12316 9.88565 3.16462C8.93849 3.20827 8.29335 3.35449 7.72816 3.57054C7.13532 3.78967 6.59833 4.1334 6.15474 4.57771C5.70289 5.01385 5.35315 5.54148 5.12985 6.12392C4.90999 6.67824 4.76009 7.31331 4.71678 8.24082C4.67459 9.17378 4.66348 9.47058 4.66348 11.8428C4.66348 14.2129 4.67459 14.5097 4.71678 15.4405C4.7612 16.3701 4.90999 17.0041 5.12985 17.5595C5.35748 18.1335 5.66061 18.6202 6.15474 19.1057C6.64775 19.5913 7.14299 19.8903 7.72705 20.1129C8.29335 20.329 8.93738 20.4763 9.88343 20.5188C10.8317 20.5603 11.1337 20.5712 13.5466 20.5712C15.9595 20.5712 16.2604 20.5603 17.2087 20.5188C18.1536 20.4752 18.801 20.329 19.3662 20.1129C19.9586 19.8937 20.4952 19.5499 20.9385 19.1057C21.4326 18.6202 21.7358 18.1335 21.9634 17.5595C22.1821 17.0041 22.332 16.3701 22.3764 15.4405C22.4186 14.5097 22.4297 14.2129 22.4297 11.8417C22.4297 9.47058 22.4186 9.17378 22.3764 8.24191C22.332 7.31331 22.1821 6.67824 21.9634 6.12392C21.7401 5.54147 21.3904 5.01383 20.9385 4.57771C20.495 4.13324 19.958 3.78948 19.3651 3.57054C18.7988 3.35449 18.1525 3.20718 17.2076 3.16462C16.2593 3.12316 15.9584 3.11224 13.5444 3.11224H13.5477H13.5466ZM12.7505 4.68573H13.5477C15.9195 4.68573 16.2004 4.69337 17.1365 4.73593C18.0026 4.77412 18.4734 4.91706 18.7866 5.036C19.2007 5.19423 19.4972 5.38409 19.8081 5.68962C20.119 5.99516 20.3111 6.28541 20.4721 6.69351C20.5943 7.00014 20.7386 7.4628 20.7775 8.31392C20.8208 9.23379 20.8297 9.50986 20.8297 11.8395C20.8297 14.1692 20.8208 14.4464 20.7775 15.3663C20.7386 16.2174 20.5932 16.679 20.4721 16.9867C20.3297 17.3657 20.1024 17.7084 19.807 17.9895C19.4961 18.295 19.2007 18.4838 18.7854 18.642C18.4745 18.762 18.0037 18.9039 17.1365 18.9432C16.2004 18.9846 15.9195 18.9944 13.5477 18.9944C11.1759 18.9944 10.8939 18.9846 9.95783 18.9432C9.09172 18.9039 8.62203 18.762 8.3089 18.642C7.92304 18.5022 7.57396 18.2793 7.28734 17.9895C6.9917 17.708 6.76404 17.3649 6.6211 16.9856C6.50007 16.679 6.35461 16.2163 6.31575 15.3652C6.27355 14.4453 6.26467 14.1692 6.26467 11.8374C6.26467 9.50659 6.27355 9.23161 6.31575 8.31174C6.35572 7.46062 6.50007 6.99796 6.62221 6.69024C6.78322 6.28323 6.97643 5.99188 7.28734 5.68635C7.59825 5.38082 7.89361 5.19204 8.3089 5.03382C8.62203 4.91379 9.09172 4.77194 9.95783 4.73265C10.7773 4.69555 11.0949 4.68464 12.7505 4.68355V4.68573ZM18.2891 6.13483C18.1491 6.13483 18.0105 6.16192 17.8812 6.21457C17.7518 6.26721 17.6343 6.34437 17.5353 6.44164C17.4364 6.53892 17.3578 6.6544 17.3043 6.78149C17.2507 6.90858 17.2231 7.0448 17.2231 7.18237C17.2231 7.31993 17.2507 7.45615 17.3043 7.58324C17.3578 7.71033 17.4364 7.82581 17.5353 7.92309C17.6343 8.02036 17.7518 8.09752 17.8812 8.15016C18.0105 8.20281 18.1491 8.2299 18.2891 8.2299C18.5718 8.2299 18.8429 8.11954 19.0429 7.92309C19.2428 7.72663 19.3551 7.46019 19.3551 7.18237C19.3551 6.90454 19.2428 6.6381 19.0429 6.44164C18.8429 6.24519 18.5718 6.13483 18.2891 6.13483ZM13.5477 7.35914C12.9426 7.34986 12.3417 7.45897 11.78 7.6801C11.2182 7.90123 10.7068 8.22998 10.2756 8.6472C9.84433 9.06442 9.50186 9.56177 9.2681 10.1103C9.03434 10.6588 8.91395 11.2476 8.91395 11.8423C8.91395 12.437 9.03434 13.0257 9.2681 13.5742C9.50186 14.1228 9.84433 14.6201 10.2756 15.0373C10.7068 15.4546 11.2182 15.7833 11.78 16.0044C12.3417 16.2256 12.9426 16.3347 13.5477 16.3254C14.7453 16.307 15.8876 15.8266 16.7279 14.9879C17.5682 14.1491 18.0391 13.0193 18.0391 11.8423C18.0391 10.6652 17.5682 9.53541 16.7279 8.69666C15.8876 7.8579 14.7453 7.3775 13.5477 7.35914ZM13.5477 8.93154C14.3331 8.93154 15.0864 9.23814 15.6418 9.78391C16.1971 10.3297 16.5091 11.0699 16.5091 11.8417C16.5091 12.6136 16.1971 13.3538 15.6418 13.8995C15.0864 14.4453 14.3331 14.7519 13.5477 14.7519C12.7623 14.7519 12.0091 14.4453 11.4537 13.8995C10.8983 13.3538 10.5863 12.6136 10.5863 11.8417C10.5863 11.0699 10.8983 10.3297 11.4537 9.78391C12.0091 9.23814 12.7623 8.93154 13.5477 8.93154Z" fill="white"/>
</g>
<defs>
<clipPath id="clip0_4_31">
<rect width="17.7663" height="17.459" fill="white" transform="translate(4.66348 3.11224)"/>
</clipPath>
</defs>
</svg>
