<svg width="25" height="25" viewBox="0 0 25 25" fill="none" xmlns="http://www.w3.org/2000/svg">
<ellipse cx="11.9132" cy="12.003" rx="11.9132" ry="12.003" fill="white"/>
<g clip-path="url(#clip0_4_38)">
<path d="M1.49426 1.62398C1.49426 0.726965 2.25274 0 3.18857 0H22.8714C23.8073 0 24.5657 0.726965 24.5657 1.62398V21.0494C24.5657 21.9464 23.8073 22.6734 22.8714 22.6734H3.18857C2.25274 22.6734 1.49426 21.9464 1.49426 21.0494V1.62398ZM8.6219 18.9804V8.742H5.15974V18.9804H8.6219ZM6.89154 7.34334C8.09847 7.34334 8.84974 6.55827 8.84974 5.57482C8.82811 4.5701 8.09991 3.80629 6.91462 3.80629C5.72932 3.80629 4.95498 4.57152 4.95498 5.57482C4.95498 6.55827 5.70625 7.34334 6.86847 7.34334H6.89154ZM13.9687 18.9804V13.2625C13.9687 12.9564 13.9918 12.6503 14.0841 12.4321C14.3335 11.8213 14.9031 11.1879 15.8606 11.1879C17.1136 11.1879 17.614 12.126 17.614 13.5034V18.9804H21.0762V13.108C21.0762 9.96211 19.3689 8.49968 17.0906 8.49968C15.2535 8.49968 14.4301 9.49164 13.9687 10.1903V10.2257H13.9456C13.9533 10.2139 13.961 10.2021 13.9687 10.1903V8.742H10.508C10.5513 9.70279 10.508 18.9804 10.508 18.9804H13.9687Z" fill="black"/>
</g>
<defs>
<clipPath id="clip0_4_38">
<rect x="1.49426" width="23.0715" height="22.6734" rx="11.3367" fill="white"/>
</clipPath>
</defs>
</svg>
