<svg width="71" height="119" viewBox="0 0 71 119" fill="none" xmlns="http://www.w3.org/2000/svg">
<path d="M46.5516 24.0752H57.3684V75.0688C57.3684 79.6811 56.4553 83.6262 54.6291 86.904C52.8263 90.1819 50.286 92.6871 47.0082 94.4196C43.7303 96.1288 39.8906 96.9833 35.489 96.9833C31.4385 96.9833 27.7978 96.2458 24.5668 94.7708C21.3592 93.2958 18.8189 91.1535 16.9459 88.3439C15.0962 85.511 14.1714 82.0693 14.1714 78.0188H24.9531C24.9531 80.0089 25.4097 81.7298 26.3228 83.1814C27.2593 84.633 28.5353 85.7685 30.1508 86.588C31.7897 87.384 33.6627 87.782 35.7699 87.782C38.0644 87.782 40.0077 87.3021 41.5998 86.3421C43.2153 85.3588 44.4444 83.9189 45.2873 82.0224C46.1302 80.126 46.5516 77.8081 46.5516 75.0688V24.0752Z" fill="#050505"/>
<path d="M46.5516 24.0752V23.0763H45.5527V24.0752H46.5516ZM57.3684 24.0752H58.3674V23.0763H57.3684V24.0752ZM54.6291 86.904L53.7564 86.4178L53.7538 86.4226L54.6291 86.904ZM47.0082 94.4196L47.47 95.3054L47.475 95.3028L47.0082 94.4196ZM24.5668 94.7708L24.1494 95.6784L24.1519 95.6796L24.5668 94.7708ZM16.9459 88.3439L16.1094 88.8901L16.1147 88.8981L16.9459 88.3439ZM14.1714 78.0188V77.0199H13.1725V78.0188H14.1714ZM24.9531 78.0188H25.9521V77.0199H24.9531V78.0188ZM26.3228 83.1814L25.4771 83.7133L25.4833 83.7229L26.3228 83.1814ZM30.1508 86.588L29.6989 87.4789L29.7066 87.4828L29.7143 87.4865L30.1508 86.588ZM41.5998 86.3421L42.1156 87.1976L42.1192 87.1954L41.5998 86.3421ZM45.2873 82.0224L44.3744 81.6167L45.2873 82.0224ZM46.5516 25.0742H57.3684V23.0763H46.5516V25.0742ZM56.3695 24.0752V75.0688H58.3674V24.0752H56.3695ZM56.3695 75.0688C56.3695 79.5496 55.4829 83.3191 53.7564 86.4179L55.5018 87.3902C57.4278 83.9333 58.3674 79.8127 58.3674 75.0688H56.3695ZM53.7538 86.4226C52.0441 89.5312 49.6451 91.8959 46.5413 93.5365L47.475 95.3028C50.9269 93.4782 53.6085 90.8326 55.5044 87.3855L53.7538 86.4226ZM46.5463 93.5339C43.4359 95.1557 39.7603 95.9844 35.489 95.9844V97.9823C40.0209 97.9823 44.0248 97.1018 47.47 95.3054L46.5463 93.5339ZM35.489 95.9844C31.5616 95.9844 28.0653 95.2698 24.9816 93.8621L24.1519 95.6796C27.5303 97.2218 31.3154 97.9823 35.489 97.9823V95.9844ZM24.9841 93.8632C21.9365 92.4618 19.5427 90.4384 17.777 87.7898L16.1147 88.8981C18.0951 91.8687 20.7819 94.1298 24.1494 95.6784L24.9841 93.8632ZM17.7823 87.7978C16.0581 85.1569 15.1704 81.9141 15.1704 78.0188H13.1725C13.1725 82.2245 14.1344 85.865 16.1094 88.8901L17.7823 87.7978ZM14.1714 79.0178H24.9531V77.0199H14.1714V79.0178ZM23.9541 78.0188C23.9541 80.1663 24.4487 82.0782 25.4772 83.7133L27.1683 82.6495C26.3707 81.3814 25.9521 79.8515 25.9521 78.0188H23.9541ZM25.4833 83.7229C26.5206 85.3306 27.9335 86.5834 29.6989 87.4789L30.6027 85.6971C29.137 84.9536 27.998 83.9354 27.1622 82.6398L25.4833 83.7229ZM29.7143 87.4865C31.509 88.3582 33.5352 88.781 35.7699 88.781V86.7831C33.7903 86.7831 32.0704 86.4098 30.5872 85.6894L29.7143 87.4865ZM35.7699 88.781C38.2038 88.781 40.3351 88.2711 42.1156 87.1976L41.0839 85.4866C39.6802 86.333 37.925 86.7831 35.7699 86.7831V88.781ZM42.1192 87.1954C43.9252 86.0961 45.2831 84.4914 46.2002 82.4281L44.3744 81.6167C43.6057 83.3463 42.5053 84.6215 41.0803 85.4888L42.1192 87.1954ZM46.2002 82.4281C47.1149 80.3701 47.5506 77.9053 47.5506 75.0688H45.5527C45.5527 77.7109 45.1455 79.8819 44.3744 81.6167L46.2002 82.4281ZM47.5506 75.0688V24.0752H45.5527V75.0688H47.5506Z" fill="white"/>
<path d="M36.7778 24.0752H47.5946V75.0688C47.5946 79.6811 46.6815 83.6262 44.8553 86.904C43.0525 90.1819 40.5122 92.6871 37.2344 94.4196C33.9565 96.1288 30.1168 96.9833 25.7152 96.9833C21.6647 96.9833 18.024 96.2458 14.793 94.7708C11.5854 93.2958 9.04509 91.1535 7.17205 88.3439C5.32242 85.511 4.39761 82.0693 4.39761 78.0188H15.1793C15.1793 80.0089 15.6359 81.7298 16.549 83.1814C17.4855 84.633 18.7615 85.7685 20.377 86.588C22.0159 87.384 23.8889 87.782 25.9961 87.782C28.2906 87.782 30.2339 87.3021 31.8259 86.3421C33.4414 85.3588 34.6706 83.9189 35.5135 82.0224C36.3564 80.126 36.7778 77.8081 36.7778 75.0688V24.0752Z" fill="white"/>
<path d="M36.7778 24.0752V23.0763H35.7788V24.0752H36.7778ZM47.5946 24.0752H48.5936V23.0763H47.5946V24.0752ZM44.8553 86.904L43.9826 86.4178L43.98 86.4226L44.8553 86.904ZM37.2344 94.4196L37.6962 95.3054L37.7012 95.3028L37.2344 94.4196ZM14.793 94.7708L14.3756 95.6784L14.3781 95.6796L14.793 94.7708ZM7.17205 88.3439L6.33555 88.8901L6.34087 88.8981L7.17205 88.3439ZM4.39761 78.0188V77.0199H3.39865V78.0188H4.39761ZM15.1793 78.0188H16.1783V77.0199H15.1793V78.0188ZM16.549 83.1814L15.7033 83.7133L15.7095 83.7229L16.549 83.1814ZM20.377 86.588L19.9251 87.4789L19.9328 87.4828L19.9405 87.4865L20.377 86.588ZM31.8259 86.3421L32.3418 87.1976L32.3454 87.1954L31.8259 86.3421ZM35.5135 82.0224L34.6006 81.6167L35.5135 82.0224ZM36.7778 25.0742H47.5946V23.0763H36.7778V25.0742ZM46.5957 24.0752V75.0688H48.5936V24.0752H46.5957ZM46.5957 75.0688C46.5957 79.5496 45.7091 83.3191 43.9826 86.4179L45.7279 87.3902C47.654 83.9333 48.5936 79.8127 48.5936 75.0688H46.5957ZM43.98 86.4226C42.2703 89.5312 39.8712 91.8959 36.7675 93.5365L37.7012 95.3028C41.1531 93.4782 43.8347 90.8326 45.7306 87.3855L43.98 86.4226ZM36.7725 93.5339C33.6621 95.1557 29.9865 95.9844 25.7152 95.9844V97.9823C30.2471 97.9823 34.251 97.1018 37.6962 95.3054L36.7725 93.5339ZM25.7152 95.9844C21.7878 95.9844 18.2915 95.2698 15.2078 93.8621L14.3781 95.6796C17.7565 97.2218 21.5416 97.9823 25.7152 97.9823V95.9844ZM15.2103 93.8632C12.1627 92.4618 9.76892 90.4384 8.00323 87.7898L6.34087 88.8981C8.32126 91.8687 11.0081 94.1298 14.3756 95.6784L15.2103 93.8632ZM8.00851 87.7978C6.28428 85.1569 5.39656 81.9141 5.39656 78.0188H3.39865C3.39865 82.2245 4.36056 85.865 6.33559 88.8901L8.00851 87.7978ZM4.39761 79.0178H15.1793V77.0199H4.39761V79.0178ZM14.1803 78.0188C14.1803 80.1663 14.6748 82.0782 15.7034 83.7133L17.3945 82.6495C16.5969 81.3814 16.1783 79.8515 16.1783 78.0188H14.1803ZM15.7095 83.7229C16.7468 85.3306 18.1597 86.5834 19.9251 87.4789L20.8289 85.6971C19.3632 84.9536 18.2242 83.9354 17.3884 82.6398L15.7095 83.7229ZM19.9405 87.4865C21.7352 88.3582 23.7614 88.781 25.9961 88.781V86.7831C24.0165 86.7831 22.2966 86.4098 20.8134 85.6894L19.9405 87.4865ZM25.9961 88.781C28.43 88.781 30.5613 88.2711 32.3418 87.1976L31.3101 85.4866C29.9064 86.333 28.1512 86.7831 25.9961 86.7831V88.781ZM32.3454 87.1954C34.1514 86.0961 35.5093 84.4914 36.4264 82.4281L34.6006 81.6167C33.8319 83.3463 32.7315 84.6215 31.3065 85.4888L32.3454 87.1954ZM36.4264 82.4281C37.3411 80.3701 37.7768 77.9053 37.7768 75.0688H35.7788C35.7788 77.7109 35.3717 79.8819 34.6006 81.6167L36.4264 82.4281ZM37.7768 75.0688V24.0752H35.7788V75.0688H37.7768Z" fill="white"/>
</svg>
