<svg width="71" height="131" viewBox="0 0 71 131" fill="none" xmlns="http://www.w3.org/2000/svg">
<path d="M46.5516 24.0752H57.3684V75.0688C57.3684 79.6811 56.4553 83.6262 54.6291 86.904C52.8263 90.1819 50.286 92.6871 47.0082 94.4196C43.7303 96.1288 39.8906 96.9833 35.489 96.9833C31.4385 96.9833 27.7978 96.2458 24.5668 94.7708C21.3592 93.2958 18.8189 91.1535 16.9459 88.3439C15.0962 85.511 14.1714 82.0693 14.1714 78.0188H24.9531C24.9531 80.0089 25.4097 81.7298 26.3228 83.1814C27.2593 84.633 28.5353 85.7685 30.1508 86.588C31.7897 87.384 33.6627 87.782 35.7699 87.782C38.0644 87.782 40.0077 87.3021 41.5998 86.3421C43.2153 85.3588 44.4444 83.9189 45.2873 82.0224C46.1302 80.126 46.5516 77.8081 46.5516 75.0688V24.0752Z" fill="#050505"/>
<path d="M46.5516 24.0752V23.0763H45.5527V24.0752H46.5516ZM57.3684 24.0752H58.3674V23.0763H57.3684V24.0752ZM54.6291 86.904L53.7564 86.4178L53.7538 86.4226L54.6291 86.904ZM47.0082 94.4196L47.47 95.3054L47.475 95.3028L47.0082 94.4196ZM24.5668 94.7708L24.1494 95.6784L24.1519 95.6796L24.5668 94.7708ZM16.9459 88.3439L16.1094 88.8901L16.1147 88.8981L16.9459 88.3439ZM14.1714 78.0188V77.0199H13.1725V78.0188H14.1714ZM24.9531 78.0188H25.9521V77.0199H24.9531V78.0188ZM26.3228 83.1814L25.4771 83.7133L25.4833 83.7229L26.3228 83.1814ZM30.1508 86.588L29.6989 87.4789L29.7066 87.4828L29.7143 87.4865L30.1508 86.588ZM41.5998 86.3421L42.1156 87.1976L42.1192 87.1954L41.5998 86.3421ZM45.2873 82.0224L44.3744 81.6167L45.2873 82.0224ZM46.5516 25.0742H57.3684V23.0763H46.5516V25.0742ZM56.3695 24.0752V75.0688H58.3674V24.0752H56.3695ZM56.3695 75.0688C56.3695 79.5496 55.4829 83.3191 53.7564 86.4179L55.5018 87.3902C57.4278 83.9333 58.3674 79.8127 58.3674 75.0688H56.3695ZM53.7538 86.4226C52.0441 89.5312 49.6451 91.8959 46.5413 93.5365L47.475 95.3028C50.9269 93.4782 53.6085 90.8326 55.5044 87.3855L53.7538 86.4226ZM46.5463 93.5339C43.4359 95.1557 39.7603 95.9844 35.489 95.9844V97.9823C40.0209 97.9823 44.0248 97.1018 47.47 95.3054L46.5463 93.5339ZM35.489 95.9844C31.5616 95.9844 28.0653 95.2698 24.9816 93.8621L24.1519 95.6796C27.5303 97.2218 31.3154 97.9823 35.489 97.9823V95.9844ZM24.9841 93.8632C21.9365 92.4618 19.5427 90.4384 17.777 87.7898L16.1147 88.8981C18.0951 91.8687 20.7819 94.1298 24.1494 95.6784L24.9841 93.8632ZM17.7823 87.7978C16.0581 85.1569 15.1704 81.9141 15.1704 78.0188H13.1725C13.1725 82.2245 14.1344 85.865 16.1094 88.8901L17.7823 87.7978ZM14.1714 79.0178H24.9531V77.0199H14.1714V79.0178ZM23.9541 78.0188C23.9541 80.1663 24.4487 82.0782 25.4772 83.7133L27.1683 82.6495C26.3707 81.3814 25.9521 79.8515 25.9521 78.0188H23.9541ZM25.4833 83.7229C26.5206 85.3306 27.9335 86.5834 29.6989 87.4789L30.6027 85.6971C29.137 84.9536 27.998 83.9354 27.1622 82.6398L25.4833 83.7229ZM29.7143 87.4865C31.509 88.3582 33.5352 88.781 35.7699 88.781V86.7831C33.7903 86.7831 32.0704 86.4098 30.5872 85.6894L29.7143 87.4865ZM35.7699 88.781C38.2038 88.781 40.3351 88.2711 42.1156 87.1976L41.0839 85.4866C39.6802 86.333 37.925 86.7831 35.7699 86.7831V88.781ZM42.1192 87.1954C43.9252 86.0961 45.2831 84.4914 46.2002 82.4281L44.3744 81.6167C43.6057 83.3463 42.5053 84.6215 41.0803 85.4888L42.1192 87.1954ZM46.2002 82.4281C47.1149 80.3701 47.5506 77.9053 47.5506 75.0688H45.5527C45.5527 77.7109 45.1455 79.8819 44.3744 81.6167L46.2002 82.4281ZM47.5506 75.0688V24.0752H45.5527V75.0688H47.5506Z" fill="white"/>
<path d="M36.7778 24.0752H47.5946V75.0688C47.5946 79.6811 46.6815 83.6262 44.8553 86.904C43.0525 90.1819 40.5122 92.6871 37.2344 94.4196C33.9565 96.1288 30.1168 96.9833 25.7152 96.9833C21.6647 96.9833 18.024 96.2458 14.793 94.7708C11.5854 93.2958 9.04509 91.1535 7.17205 88.3439C5.32242 85.511 4.39761 82.0693 4.39761 78.0188H15.1793C15.1793 80.0089 15.6359 81.7298 16.549 83.1814C17.4855 84.633 18.7615 85.7685 20.377 86.588C22.0159 87.384 23.8889 87.782 25.9961 87.782C28.2906 87.782 30.2339 87.3021 31.8259 86.3421C33.4414 85.3588 34.6706 83.9189 35.5135 82.0224C36.3564 80.126 36.7778 77.8081 36.7778 75.0688V24.0752Z" fill="white"/>
<path d="M36.7778 24.0752V23.0763H35.7788V24.0752H36.7778ZM47.5946 24.0752H48.5936V23.0763H47.5946V24.0752ZM44.8553 86.904L43.9826 86.4178L43.98 86.4226L44.8553 86.904ZM37.2344 94.4196L37.6962 95.3054L37.7012 95.3028L37.2344 94.4196ZM14.793 94.7708L14.3756 95.6784L14.3781 95.6796L14.793 94.7708ZM7.17205 88.3439L6.33555 88.8901L6.34087 88.8981L7.17205 88.3439ZM4.39761 78.0188V77.0199H3.39865V78.0188H4.39761ZM15.1793 78.0188H16.1783V77.0199H15.1793V78.0188ZM16.549 83.1814L15.7033 83.7133L15.7095 83.7229L16.549 83.1814ZM20.377 86.588L19.9251 87.4789L19.9328 87.4828L19.9405 87.4865L20.377 86.588ZM31.8259 86.3421L32.3418 87.1976L32.3454 87.1954L31.8259 86.3421ZM35.5135 82.0224L34.6006 81.6167L35.5135 82.0224ZM36.7778 25.0742H47.5946V23.0763H36.7778V25.0742ZM46.5957 24.0752V75.0688H48.5936V24.0752H46.5957ZM46.5957 75.0688C46.5957 79.5496 45.7091 83.3191 43.9826 86.4179L45.7279 87.3902C47.654 83.9333 48.5936 79.8127 48.5936 75.0688H46.5957ZM43.98 86.4226C42.2703 89.5312 39.8712 91.8959 36.7675 93.5365L37.7012 95.3028C41.1531 93.4782 43.8347 90.8326 45.7306 87.3855L43.98 86.4226ZM36.7725 93.5339C33.6621 95.1557 29.9865 95.9844 25.7152 95.9844V97.9823C30.2471 97.9823 34.251 97.1018 37.6962 95.3054L36.7725 93.5339ZM25.7152 95.9844C21.7878 95.9844 18.2915 95.2698 15.2078 93.8621L14.3781 95.6796C17.7565 97.2218 21.5416 97.9823 25.7152 97.9823V95.9844ZM15.2103 93.8632C12.1627 92.4618 9.76892 90.4384 8.00323 87.7898L6.34087 88.8981C8.32126 91.8687 11.0081 94.1298 14.3756 95.6784L15.2103 93.8632ZM8.00851 87.7978C6.28428 85.1569 5.39656 81.9141 5.39656 78.0188H3.39865C3.39865 82.2245 4.36056 85.865 6.33559 88.8901L8.00851 87.7978ZM4.39761 79.0178H15.1793V77.0199H4.39761V79.0178ZM14.1803 78.0188C14.1803 80.1663 14.6748 82.0782 15.7034 83.7133L17.3945 82.6495C16.5969 81.3814 16.1783 79.8515 16.1783 78.0188H14.1803ZM15.7095 83.7229C16.7468 85.3306 18.1597 86.5834 19.9251 87.4789L20.8289 85.6971C19.3632 84.9536 18.2242 83.9354 17.3884 82.6398L15.7095 83.7229ZM19.9405 87.4865C21.7352 88.3582 23.7614 88.781 25.9961 88.781V86.7831C24.0165 86.7831 22.2966 86.4098 20.8134 85.6894L19.9405 87.4865ZM25.9961 88.781C28.43 88.781 30.5613 88.2711 32.3418 87.1976L31.3101 85.4866C29.9064 86.333 28.1512 86.7831 25.9961 86.7831V88.781ZM32.3454 87.1954C34.1514 86.0961 35.5093 84.4914 36.4264 82.4281L34.6006 81.6167C33.8319 83.3463 32.7315 84.6215 31.3065 85.4888L32.3454 87.1954ZM36.4264 82.4281C37.3411 80.3701 37.7768 77.9053 37.7768 75.0688H35.7788C35.7788 77.7109 35.3717 79.8819 34.6006 81.6167L36.4264 82.4281ZM37.7768 75.0688V24.0752H35.7788V75.0688H37.7768Z" fill="white"/>
<path d="M16.9355 109.095V120.117C16.9355 120.489 16.8772 120.838 16.7607 121.166C16.6515 121.486 16.4949 121.763 16.291 121.996C16.0871 122.229 15.8395 122.415 15.5482 122.553C15.2569 122.684 14.9365 122.75 14.5869 122.75C14.15 122.75 13.7786 122.691 13.4727 122.575C13.1669 122.458 12.9192 122.28 12.7299 122.04C12.5843 121.843 12.475 121.603 12.4022 121.319C12.3294 121.035 12.293 120.703 12.293 120.325H9.21252C9.2198 121.148 9.35452 121.865 9.61669 122.477C9.87885 123.088 10.2466 123.595 10.72 123.995C11.186 124.403 11.7468 124.709 12.4022 124.913C13.0576 125.117 13.7859 125.218 14.5869 125.218C15.3443 125.218 16.0507 125.095 16.7061 124.847C17.3688 124.599 17.9441 124.25 18.432 123.798C18.9199 123.347 19.3023 122.812 19.579 122.193C19.863 121.566 20.0086 120.875 20.0159 120.117L20.005 109.095H16.9355ZM22.5611 118.981V119.211C22.5611 120.077 22.6849 120.878 22.9325 121.614C23.1801 122.342 23.5442 122.975 24.0249 123.514C24.4982 124.053 25.0808 124.476 25.7727 124.782C26.4718 125.08 27.2655 125.229 28.154 125.229C29.0352 125.229 29.8217 125.08 30.5135 124.782C31.2053 124.476 31.7879 124.053 32.2613 123.514C32.7346 122.975 33.0951 122.342 33.3427 121.614C33.5903 120.878 33.7141 120.077 33.7141 119.211V118.981C33.7141 118.122 33.5903 117.328 33.3427 116.6C33.0951 115.864 32.7346 115.227 32.2613 114.688C31.7806 114.149 31.1944 113.727 30.5026 113.421C29.8107 113.115 29.0206 112.962 28.1321 112.962C27.2437 112.962 26.4536 113.115 25.7617 113.421C25.0772 113.727 24.4982 114.149 24.0249 114.688C23.5442 115.227 23.1801 115.864 22.9325 116.6C22.6849 117.328 22.5611 118.122 22.5611 118.981ZM25.5979 119.211V118.981C25.5979 118.5 25.6452 118.045 25.7399 117.616C25.8346 117.186 25.9838 116.807 26.1878 116.48C26.3917 116.152 26.6538 115.893 26.9742 115.704C27.2947 115.515 27.6806 115.42 28.1321 115.42C28.5909 115.42 28.9805 115.515 29.301 115.704C29.6214 115.893 29.8836 116.152 30.0875 116.48C30.2841 116.807 30.4297 117.186 30.5244 117.616C30.6191 118.045 30.6664 118.5 30.6664 118.981V119.211C30.6664 119.706 30.6191 120.172 30.5244 120.609C30.4297 121.038 30.2841 121.413 30.0875 121.734C29.8836 122.062 29.6214 122.32 29.301 122.509C28.9805 122.699 28.5982 122.793 28.154 122.793C27.6952 122.793 27.302 122.699 26.9742 122.509C26.6538 122.32 26.3917 122.062 26.1878 121.734C25.9838 121.413 25.8346 121.038 25.7399 120.609C25.6452 120.172 25.5979 119.706 25.5979 119.211ZM43.7966 125H46.877V124.814C46.7241 124.516 46.6076 124.159 46.5274 123.744C46.4473 123.329 46.4073 122.804 46.4073 122.171V117.102C46.4073 116.418 46.2798 115.817 46.025 115.3C45.7701 114.776 45.4169 114.342 44.9654 114C44.5139 113.658 43.9786 113.399 43.3596 113.224C42.7479 113.05 42.0852 112.962 41.3715 112.962C40.5777 112.962 39.8714 113.064 39.2523 113.268C38.6406 113.465 38.1236 113.734 37.7012 114.076C37.2715 114.419 36.9438 114.816 36.7181 115.267C36.4996 115.719 36.3904 116.196 36.3904 116.698H39.4271C39.4271 116.487 39.4563 116.294 39.5145 116.119C39.5801 115.944 39.6784 115.795 39.8094 115.671C39.9551 115.533 40.1444 115.427 40.3775 115.354C40.6105 115.274 40.8872 115.234 41.2077 115.234C41.5718 115.234 41.8886 115.282 42.158 115.376C42.4347 115.464 42.6641 115.591 42.8462 115.759C43.021 115.919 43.1521 116.112 43.2395 116.338C43.3268 116.556 43.3705 116.804 43.3705 117.08V117.78H41.6774C40.8035 117.78 40.0279 117.86 39.3507 118.02C38.6807 118.173 38.1163 118.399 37.6575 118.697C37.1477 119.025 36.7654 119.444 36.5105 119.953C36.2556 120.456 36.1282 121.035 36.1282 121.69C36.1282 122.2 36.2302 122.673 36.4341 123.11C36.638 123.54 36.922 123.911 37.2861 124.224C37.6502 124.538 38.0835 124.782 38.586 124.956C39.0958 125.131 39.6529 125.218 40.2573 125.218C40.6287 125.218 40.9746 125.182 41.2951 125.109C41.6155 125.044 41.9104 124.949 42.1799 124.825C42.442 124.709 42.6823 124.57 42.9008 124.41C43.1193 124.25 43.3123 124.079 43.4798 123.897C43.5162 124.108 43.5599 124.308 43.6109 124.498C43.6618 124.687 43.7237 124.854 43.7966 125ZM40.9018 122.87C40.6178 122.87 40.3666 122.837 40.1481 122.772C39.9369 122.699 39.7585 122.604 39.6128 122.488C39.4672 122.364 39.3543 122.214 39.2742 122.04C39.2014 121.858 39.165 121.661 39.165 121.45C39.165 121.18 39.2159 120.933 39.3179 120.707C39.4198 120.474 39.5764 120.274 39.7876 120.106C39.9988 119.946 40.2719 119.822 40.6069 119.735C40.9419 119.64 41.346 119.593 41.8194 119.593H43.3705V121.625C43.2831 121.778 43.163 121.93 43.0101 122.083C42.8571 122.229 42.6751 122.36 42.4639 122.477C42.2527 122.593 42.016 122.688 41.7538 122.761C41.4917 122.833 41.2077 122.87 40.9018 122.87ZM45.3586 108.189L43.8293 107.85C43.8293 108.003 43.8038 108.145 43.7529 108.276C43.7092 108.4 43.6473 108.505 43.5672 108.593C43.4798 108.695 43.3705 108.775 43.2395 108.833C43.1157 108.884 42.9846 108.91 42.8462 108.91C42.5695 108.91 42.3073 108.862 42.0597 108.768C41.8121 108.666 41.5681 108.553 41.3278 108.429C41.0802 108.312 40.829 108.207 40.5741 108.112C40.3192 108.01 40.0461 107.959 39.7548 107.959C39.398 107.959 39.0739 108.039 38.7826 108.2C38.4986 108.36 38.2547 108.567 38.0508 108.822C37.8468 109.077 37.6866 109.365 37.5701 109.685C37.4609 110.006 37.4063 110.326 37.4063 110.646L38.9356 110.974C38.9356 110.807 38.9611 110.657 39.012 110.526C39.063 110.388 39.1358 110.275 39.2305 110.188C39.3179 110.093 39.4198 110.024 39.5364 109.98C39.6529 109.929 39.7767 109.904 39.9078 109.904C40.1918 109.904 40.4467 109.955 40.6724 110.057C40.8982 110.151 41.1276 110.257 41.3606 110.373C41.5864 110.497 41.8267 110.61 42.0816 110.712C42.3437 110.807 42.6496 110.854 42.9991 110.854C43.356 110.854 43.6764 110.778 43.9604 110.625C44.2517 110.472 44.5029 110.268 44.7141 110.013C44.918 109.765 45.0746 109.481 45.1838 109.161C45.3004 108.84 45.3586 108.516 45.3586 108.189ZM49.4331 118.981V119.211C49.4331 120.077 49.5569 120.878 49.8045 121.614C50.0521 122.342 50.4162 122.975 50.8969 123.514C51.3702 124.053 51.9528 124.476 52.6447 124.782C53.3438 125.08 54.1375 125.229 55.026 125.229C55.9072 125.229 56.6937 125.08 57.3855 124.782C58.0773 124.476 58.6599 124.053 59.1333 123.514C59.6066 122.975 59.9671 122.342 60.2147 121.614C60.4623 120.878 60.5861 120.077 60.5861 119.211V118.981C60.5861 118.122 60.4623 117.328 60.2147 116.6C59.9671 115.864 59.6066 115.227 59.1333 114.688C58.6526 114.149 58.0664 113.727 57.3746 113.421C56.6827 113.115 55.8926 112.962 55.0041 112.962C54.1157 112.962 53.3256 113.115 52.6337 113.421C51.9492 113.727 51.3702 114.149 50.8969 114.688C50.4162 115.227 50.0521 115.864 49.8045 116.6C49.5569 117.328 49.4331 118.122 49.4331 118.981ZM52.4699 119.211V118.981C52.4699 118.5 52.5172 118.045 52.6119 117.616C52.7066 117.186 52.8558 116.807 53.0597 116.48C53.2637 116.152 53.5258 115.893 53.8462 115.704C54.1667 115.515 54.5526 115.42 55.0041 115.42C55.4629 115.42 55.8525 115.515 56.173 115.704C56.4934 115.893 56.7556 116.152 56.9595 116.48C57.1561 116.807 57.3017 117.186 57.3964 117.616C57.4911 118.045 57.5384 118.5 57.5384 118.981V119.211C57.5384 119.706 57.4911 120.172 57.3964 120.609C57.3017 121.038 57.1561 121.413 56.9595 121.734C56.7556 122.062 56.4934 122.32 56.173 122.509C55.8525 122.699 55.4702 122.793 55.026 122.793C54.5672 122.793 54.174 122.699 53.8462 122.509C53.5258 122.32 53.2637 122.062 53.0597 121.734C52.8558 121.413 52.7066 121.038 52.6119 120.609C52.5172 120.172 52.4699 119.706 52.4699 119.211Z" fill="white"/>
</svg>
